<svg width="998" height="551" viewBox="0 0 998 551" fill="none" xmlns="http://www.w3.org/2000/svg">
<rect width="998" height="551" fill="#575656"/>
<rect width="998" height="551" fill="black"/>
<path d="M296.981 265.493L282.007 297.008L266.579 329H233L323.753 138L384.331 265.493H350.299L323.753 209.386L296.981 265.493ZM399.306 297.246L414.507 329H380.701L365.727 297.246H399.306ZM537.345 249.496H492.195C477.447 249.496 464.969 244.005 454.759 233.261C444.549 222.279 439.331 209.148 439.331 193.629C439.331 178.349 444.549 165.456 454.759 154.474C464.969 143.491 477.447 138 492.195 138V169.993C489.018 169.993 486.069 170.47 483.346 171.664C480.397 172.858 478.128 174.529 475.859 176.916C473.817 179.065 472.229 181.691 471.095 184.556C469.96 187.421 469.506 190.525 469.506 193.629C469.506 200.314 471.548 205.805 475.859 210.58C480.397 215.355 485.615 217.742 492.195 217.742H537.345C552.092 217.742 564.571 223.234 574.781 233.978C585.217 244.96 590.435 258.091 590.435 273.371C590.435 288.651 585.217 301.783 574.781 312.765C564.571 323.509 552.092 329 537.345 329V297.008C540.521 297.008 543.471 296.53 546.193 295.336C549.143 294.143 551.638 292.471 553.68 290.322C555.722 288.174 557.31 285.786 558.445 282.683C559.579 279.818 560.26 276.714 560.26 273.371C560.26 266.925 557.764 261.434 553.453 256.659C548.916 251.884 543.697 249.496 537.345 249.496ZM665.247 297.008H756V329H635.071L665.247 297.008ZM635.071 138H665.247V143.252V253.794L635.071 285.786V143.252V138Z" fill="url(#paint0_linear_0_1)"/>
<path d="M789 350H208V354H789V350Z" fill="url(#paint1_linear_0_1)"/>
<path d="M234 386.533V377L253.417 397.5L272.785 377V418H266.393V393.502L253.417 407.186L234 386.533ZM328.231 404.368L325.035 411.133L321.742 418H314.576L333.944 377L346.872 404.368H339.609L333.944 392.324L328.231 404.368ZM350.068 411.184L353.312 418H346.098L342.902 411.184H350.068ZM394.457 398.371C392.956 400.678 391.067 402.317 388.791 403.291L396.732 418H389.324L378.091 397.449L383.853 397.5C385.596 397.5 387.097 396.834 388.356 395.501C389.663 394.169 390.292 392.529 390.292 390.633C390.292 388.788 389.663 387.199 388.356 385.866C387.097 384.534 385.596 383.868 383.853 383.868H370.924L370.198 383.099L366.857 377H383.853C387.387 377 390.438 378.333 392.956 380.998C395.473 383.714 396.732 386.891 396.732 390.633C396.732 393.503 396.006 396.065 394.457 398.371ZM458.402 377L439.033 397.5L458.402 418H449.299L432.545 400.37L429.834 397.551L432.545 394.681L449.299 377H458.402ZM490.777 417.436L497.216 411.133H516.585V418H490.777V417.436ZM490.777 377H516.585V383.868H497.216L490.777 377ZM490.777 394.118H497.216H516.585V400.934H497.216H490.777V394.118ZM553.517 377H572.885V383.868H560.005V418H553.517V383.868V377ZM616.597 383.765V411.133L610.157 418V377L616.597 383.765ZM674.636 377H681.076V417.898V417.949V418L648.876 387.353V377L674.636 401.549V377ZM745.202 409.954C746.849 409.134 748.301 408.006 749.56 406.52L756 408.775C755.128 410.159 754.112 411.44 752.901 412.568C751.739 413.695 750.48 414.669 749.076 415.489C747.72 416.309 746.268 416.924 744.67 417.334C743.12 417.795 741.522 418 739.828 418C734.453 418 729.95 415.95 726.173 411.953C722.396 407.955 720.46 403.189 720.46 397.5C720.46 391.863 722.348 387.045 726.173 383.048C729.901 378.999 734.453 377 739.828 377C742.491 377 745.009 377.513 747.381 378.589C749.705 379.665 751.787 381.151 753.579 383.048L748.931 387.865C746.413 385.2 743.411 383.868 739.828 383.868C736.293 383.868 733.242 385.149 730.676 387.865C728.158 390.53 726.948 393.759 726.948 397.5C726.948 401.241 728.158 404.521 730.676 407.186C733.194 409.851 736.293 411.133 739.828 411.133C741.764 411.133 743.556 410.722 745.202 409.954ZM739.828 400.934V394.118H756L749.56 400.934H739.828Z" fill="url(#paint2_linear_0_1)"/>
<defs>
<linearGradient id="paint0_linear_0_1" x1="453.647" y1="183.783" x2="537.945" y2="396.619" gradientUnits="userSpaceOnUse">
<stop stop-color="#7514D7"/>
<stop offset="1" stop-color="#3A056F" stop-opacity="0.65"/>
</linearGradient>
<linearGradient id="paint1_linear_0_1" x1="498.5" y1="350" x2="498.5" y2="354" gradientUnits="userSpaceOnUse">
<stop stop-color="#C457F7"/>
<stop offset="1" stop-color="white" stop-opacity="0"/>
</linearGradient>
<linearGradient id="paint2_linear_0_1" x1="495.387" y1="349.556" x2="514.577" y2="396.064" gradientUnits="userSpaceOnUse">
<stop stop-color="#BB84F2"/>
<stop offset="1" stop-color="#A449FF" stop-opacity="0.57"/>
</linearGradient>
</defs>
</svg>
