<svg xmlns="http://www.w3.org/2000/svg" xmlns:xlink="http://www.w3.org/1999/xlink" width="991" zoomAndPan="magnify" viewBox="0 0 743.25 413.249996" height="551" preserveAspectRatio="xMidYMid meet" ><defs><g/><clipPath ><path d="M 0.300781 0 L 742.203125 0 L 742.203125 412.5 L 0.300781 412.5 Z M 0.300781 0 " /></clipPath></defs><g clip-path="url(#a6a3235959)"><path d="M 0.300781 0 L 742.203125 0 L 742.203125 412.5 L 0.300781 412.5 Z M 0.300781 0 " fill-opacity="1" fill-rule="nonzero"/><path fill="#000000" d="M 0.300781 0 L 742.203125 0 L 742.203125 412.5 L 0.300781 412.5 Z M 0.300781 0 " fill-opacity="1" fill-rule="nonzero"/></g><g fill="#ffffff" fill-opacity="1"><g transform="translate(115.753642, 228.773569)"><g><path d="M 32.046875 0 L 18.765625 0 L 18.765625 -51.59375 L 1.75 -51.59375 L 1.75 -62.640625 L 49.0625 -62.640625 L 49.0625 -51.59375 L 32.046875 -51.59375 Z M 32.046875 0 "/></g></g><g transform="translate(166.565996, 228.773569)"><g><path d="M 51.078125 0 L 38 0 L 38 -27.984375 C 38 -34.890625 35.429688 -38.34375 30.296875 -38.34375 C 26.640625 -38.34375 23.992188 -37.097656 22.359375 -34.609375 C 20.734375 -32.128906 19.921875 -28.101562 19.921875 -22.53125 L 19.921875 0 L 6.859375 0 L 6.859375 -66.671875 L 19.921875 -66.671875 L 19.921875 -53.09375 C 19.921875 -52.03125 19.820312 -49.539062 19.625 -45.625 L 19.328125 -41.78125 L 20.015625 -41.78125 C 22.921875 -46.457031 27.546875 -48.796875 33.890625 -48.796875 C 39.515625 -48.796875 43.785156 -47.28125 46.703125 -44.25 C 49.617188 -41.226562 51.078125 -36.890625 51.078125 -31.234375 Z M 51.078125 0 "/></g></g><g transform="translate(224.233306, 228.773569)"><g><path d="M 26.6875 -39.5 C 23.914062 -39.5 21.742188 -38.617188 20.171875 -36.859375 C 18.609375 -35.109375 17.710938 -32.617188 17.484375 -29.390625 L 35.8125 -29.390625 C 35.757812 -32.617188 34.914062 -35.109375 33.28125 -36.859375 C 31.65625 -38.617188 29.457031 -39.5 26.6875 -39.5 Z M 28.53125 0.859375 C 20.820312 0.859375 14.796875 -1.265625 10.453125 -5.515625 C 6.109375 -9.773438 3.9375 -15.804688 3.9375 -23.609375 C 3.9375 -31.640625 5.941406 -37.84375 9.953125 -42.21875 C 13.972656 -46.601562 19.523438 -48.796875 26.609375 -48.796875 C 33.378906 -48.796875 38.648438 -46.867188 42.421875 -43.015625 C 46.191406 -39.160156 48.078125 -33.832031 48.078125 -27.03125 L 48.078125 -20.6875 L 17.1875 -20.6875 C 17.320312 -16.976562 18.414062 -14.082031 20.46875 -12 C 22.53125 -9.914062 25.421875 -8.875 29.140625 -8.875 C 32.023438 -8.875 34.75 -9.171875 37.3125 -9.765625 C 39.882812 -10.367188 42.570312 -11.328125 45.375 -12.640625 L 45.375 -2.53125 C 43.09375 -1.382812 40.648438 -0.535156 38.046875 0.015625 C 35.453125 0.578125 32.28125 0.859375 28.53125 0.859375 Z M 28.53125 0.859375 "/></g></g><g transform="translate(276.073903, 228.773569)"><g><path d="M 34.484375 -52.484375 C 29.492188 -52.484375 25.625 -50.601562 22.875 -46.84375 C 20.132812 -43.09375 18.765625 -37.863281 18.765625 -31.15625 C 18.765625 -17.1875 24.003906 -10.203125 34.484375 -10.203125 C 38.890625 -10.203125 44.21875 -11.300781 50.46875 -13.5 L 50.46875 -2.359375 C 45.332031 -0.210938 39.59375 0.859375 33.25 0.859375 C 24.132812 0.859375 17.160156 -1.898438 12.328125 -7.421875 C 7.503906 -12.953125 5.09375 -20.890625 5.09375 -31.234375 C 5.09375 -37.742188 6.28125 -43.445312 8.65625 -48.34375 C 11.03125 -53.25 14.4375 -57.007812 18.875 -59.625 C 23.3125 -62.238281 28.515625 -63.546875 34.484375 -63.546875 C 40.578125 -63.546875 46.691406 -62.070312 52.828125 -59.125 L 48.546875 -48.328125 C 46.203125 -49.441406 43.84375 -50.410156 41.46875 -51.234375 C 39.101562 -52.066406 36.773438 -52.484375 34.484375 -52.484375 Z M 34.484375 -52.484375 "/></g></g><g transform="translate(331.98463, 228.773569)"><g><path d="M 51.078125 0 L 38 0 L 38 -27.984375 C 38 -34.890625 35.429688 -38.34375 30.296875 -38.34375 C 26.640625 -38.34375 23.992188 -37.097656 22.359375 -34.609375 C 20.734375 -32.128906 19.921875 -28.101562 19.921875 -22.53125 L 19.921875 0 L 6.859375 0 L 6.859375 -66.671875 L 19.921875 -66.671875 L 19.921875 -53.09375 C 19.921875 -52.03125 19.820312 -49.539062 19.625 -45.625 L 19.328125 -41.78125 L 20.015625 -41.78125 C 22.921875 -46.457031 27.546875 -48.796875 33.890625 -48.796875 C 39.515625 -48.796875 43.785156 -47.28125 46.703125 -44.25 C 49.617188 -41.226562 51.078125 -36.890625 51.078125 -31.234375 Z M 51.078125 0 "/></g></g><g transform="translate(389.65194, 228.773569)"><g><path d="M 37.28125 0 L 34.75 -6.515625 L 34.40625 -6.515625 C 32.207031 -3.742188 29.941406 -1.820312 27.609375 -0.75 C 25.285156 0.320312 22.253906 0.859375 18.515625 0.859375 C 13.910156 0.859375 10.285156 -0.453125 7.640625 -3.078125 C 5.003906 -5.710938 3.6875 -9.457031 3.6875 -14.3125 C 3.6875 -19.394531 5.460938 -23.140625 9.015625 -25.546875 C 12.578125 -27.960938 17.941406 -29.300781 25.109375 -29.5625 L 33.421875 -29.828125 L 33.421875 -31.921875 C 33.421875 -36.773438 30.9375 -39.203125 25.96875 -39.203125 C 22.132812 -39.203125 17.632812 -38.046875 12.46875 -35.734375 L 8.140625 -44.5625 C 13.648438 -47.445312 19.765625 -48.890625 26.484375 -48.890625 C 32.910156 -48.890625 37.835938 -47.488281 41.265625 -44.6875 C 44.691406 -41.882812 46.40625 -37.628906 46.40625 -31.921875 L 46.40625 0 Z M 33.421875 -22.1875 L 28.359375 -22.015625 C 24.566406 -21.910156 21.738281 -21.226562 19.875 -19.96875 C 18.019531 -18.707031 17.09375 -16.789062 17.09375 -14.21875 C 17.09375 -10.539062 19.207031 -8.703125 23.4375 -8.703125 C 26.46875 -8.703125 28.890625 -9.570312 30.703125 -11.3125 C 32.515625 -13.050781 33.421875 -15.363281 33.421875 -18.25 Z M 33.421875 -22.1875 "/></g></g><g transform="translate(442.649311, 228.773569)"><g><path d="M 51.078125 0 L 38 0 L 38 -27.984375 C 38 -31.429688 37.382812 -34.019531 36.15625 -35.75 C 34.925781 -37.476562 32.972656 -38.34375 30.296875 -38.34375 C 26.640625 -38.34375 23.992188 -37.117188 22.359375 -34.671875 C 20.734375 -32.234375 19.921875 -28.1875 19.921875 -22.53125 L 19.921875 0 L 6.859375 0 L 6.859375 -47.90625 L 16.84375 -47.90625 L 18.59375 -41.78125 L 19.328125 -41.78125 C 20.785156 -44.09375 22.789062 -45.835938 25.34375 -47.015625 C 27.894531 -48.203125 30.800781 -48.796875 34.0625 -48.796875 C 39.632812 -48.796875 43.863281 -47.289062 46.75 -44.28125 C 49.632812 -41.269531 51.078125 -36.921875 51.078125 -31.234375 Z M 51.078125 0 "/></g></g><g transform="translate(500.316621, 228.773569)"><g><path d="M 48.546875 -47.90625 L 48.546875 -41.265625 L 41.046875 -39.328125 C 42.421875 -37.191406 43.109375 -34.796875 43.109375 -32.140625 C 43.109375 -26.992188 41.3125 -22.984375 37.71875 -20.109375 C 34.132812 -17.242188 29.160156 -15.8125 22.796875 -15.8125 L 20.4375 -15.9375 L 18.515625 -16.15625 C 17.171875 -15.125 16.5 -13.976562 16.5 -12.71875 C 16.5 -10.832031 18.894531 -9.890625 23.6875 -9.890625 L 31.828125 -9.890625 C 37.085938 -9.890625 41.09375 -8.757812 43.84375 -6.5 C 46.601562 -4.25 47.984375 -0.941406 47.984375 3.421875 C 47.984375 9.023438 45.648438 13.367188 40.984375 16.453125 C 36.316406 19.535156 29.609375 21.078125 20.859375 21.078125 C 14.179688 21.078125 9.078125 19.910156 5.546875 17.578125 C 2.015625 15.253906 0.25 11.992188 0.25 7.796875 C 0.25 4.910156 1.148438 2.492188 2.953125 0.546875 C 4.753906 -1.390625 7.398438 -2.769531 10.890625 -3.59375 C 9.546875 -4.164062 8.375 -5.101562 7.375 -6.40625 C 6.375 -7.707031 5.875 -9.085938 5.875 -10.546875 C 5.875 -12.367188 6.398438 -13.882812 7.453125 -15.09375 C 8.515625 -16.3125 10.046875 -17.507812 12.046875 -18.6875 C 9.523438 -19.769531 7.53125 -21.507812 6.0625 -23.90625 C 4.59375 -26.300781 3.859375 -29.128906 3.859375 -32.390625 C 3.859375 -37.617188 5.554688 -41.660156 8.953125 -44.515625 C 12.347656 -47.367188 17.203125 -48.796875 23.515625 -48.796875 C 24.859375 -48.796875 26.453125 -48.675781 28.296875 -48.4375 C 30.140625 -48.195312 31.316406 -48.019531 31.828125 -47.90625 Z M 11.5625 6.765625 C 11.5625 8.566406 12.425781 9.976562 14.15625 11 C 15.882812 12.03125 18.304688 12.546875 21.421875 12.546875 C 26.109375 12.546875 29.78125 11.90625 32.4375 10.625 C 35.09375 9.34375 36.421875 7.585938 36.421875 5.359375 C 36.421875 3.554688 35.632812 2.3125 34.0625 1.625 C 32.488281 0.9375 30.0625 0.59375 26.78125 0.59375 L 20.015625 0.59375 C 17.609375 0.59375 15.597656 1.15625 13.984375 2.28125 C 12.367188 3.414062 11.5625 4.910156 11.5625 6.765625 Z M 16.328125 -32.21875 C 16.328125 -29.625 16.914062 -27.566406 18.09375 -26.046875 C 19.28125 -24.535156 21.085938 -23.78125 23.515625 -23.78125 C 25.972656 -23.78125 27.773438 -24.535156 28.921875 -26.046875 C 30.066406 -27.566406 30.640625 -29.625 30.640625 -32.21875 C 30.640625 -37.988281 28.265625 -40.875 23.515625 -40.875 C 18.722656 -40.875 16.328125 -37.988281 16.328125 -32.21875 Z M 16.328125 -32.21875 "/></g></g><g transform="translate(549.886515, 228.773569)"><g><path d="M 26.6875 -39.5 C 23.914062 -39.5 21.742188 -38.617188 20.171875 -36.859375 C 18.609375 -35.109375 17.710938 -32.617188 17.484375 -29.390625 L 35.8125 -29.390625 C 35.757812 -32.617188 34.914062 -35.109375 33.28125 -36.859375 C 31.65625 -38.617188 29.457031 -39.5 26.6875 -39.5 Z M 28.53125 0.859375 C 20.820312 0.859375 14.796875 -1.265625 10.453125 -5.515625 C 6.109375 -9.773438 3.9375 -15.804688 3.9375 -23.609375 C 3.9375 -31.640625 5.941406 -37.84375 9.953125 -42.21875 C 13.972656 -46.601562 19.523438 -48.796875 26.609375 -48.796875 C 33.378906 -48.796875 38.648438 -46.867188 42.421875 -43.015625 C 46.191406 -39.160156 48.078125 -33.832031 48.078125 -27.03125 L 48.078125 -20.6875 L 17.1875 -20.6875 C 17.320312 -16.976562 18.414062 -14.082031 20.46875 -12 C 22.53125 -9.914062 25.421875 -8.875 29.140625 -8.875 C 32.023438 -8.875 34.75 -9.171875 37.3125 -9.765625 C 39.882812 -10.367188 42.570312 -11.328125 45.375 -12.640625 L 45.375 -2.53125 C 43.09375 -1.382812 40.648438 -0.535156 38.046875 0.015625 C 35.453125 0.578125 32.28125 0.859375 28.53125 0.859375 Z M 28.53125 0.859375 "/></g></g></g><g fill="#8c52ff" fill-opacity="1"><g transform="translate(601.727127, 228.773569)"><g><path d="M 5.015625 -6.125 C 5.015625 -8.519531 5.65625 -10.332031 6.9375 -11.5625 C 8.226562 -12.789062 10.097656 -13.40625 12.546875 -13.40625 C 14.921875 -13.40625 16.757812 -12.773438 18.0625 -11.515625 C 19.363281 -10.265625 20.015625 -8.46875 20.015625 -6.125 C 20.015625 -3.875 19.351562 -2.097656 18.03125 -0.796875 C 16.71875 0.503906 14.890625 1.15625 12.546875 1.15625 C 10.148438 1.15625 8.296875 0.519531 6.984375 -0.75 C 5.671875 -2.019531 5.015625 -3.8125 5.015625 -6.125 Z M 5.015625 -6.125 "/></g></g></g></svg>